<mxfile host="app.diagrams.net" modified="2024-06-01T13:32:02.953Z" agent="Mozilla/5.0 (Windows NT 10.0; Win64; x64) AppleWebKit/537.36 (KHTML, like Gecko) Chrome/125.0.0.0 Safari/537.36" version="24.4.13" etag="yv_MdEwVms08EFfzFiRY" type="github">
  <diagram id="DoVlfK1XgMwn39wmh71a" name="Page-1">
    <mxGraphModel dx="1434" dy="820" grid="1" gridSize="10" guides="1" tooltips="1" connect="1" arrows="1" fold="1" page="1" pageScale="1" pageWidth="850" pageHeight="1100" math="0" shadow="0">
      <root>
        <mxCell id="0" />
        <mxCell id="1" parent="0" />
        <UserObject label="&lt;pre&gt;     ┌───────┐                  ┌───────────────┐            ┌───────┐              ┌────────┐&#xa;     │Manager│                  │Web Application│            │Backend│              │Database│&#xa;     └───┬───┘                  └───────┬───────┘            └───┬───┘              └───┬────┘&#xa;         │  Open Create Project Page    │                        │                      │     &#xa;         │─────────────────────────────&gt;│                        │                      │     &#xa;         │                              │                        │                      │     &#xa;         │    Enter Project Details     │                        │                      │     &#xa;         │─────────────────────────────&gt;│                        │                      │     &#xa;         │                              │                        │                      │     &#xa;         │     Submit Project Form      │                        │                      │     &#xa;         │─────────────────────────────&gt;│                        │                      │     &#xa;         │                              │                        │                      │     &#xa;         │                              │    Create Project      │                      │     &#xa;         │                              │───────────────────────&gt;│                      │     &#xa;         │                              │                        │                      │     &#xa;         │                              │                        │Insert Project Details│     &#xa;         │                              │                        │──────────────────────&gt;     &#xa;         │                              │                        │                      │     &#xa;         │                              │                        │  Confirm Insertion   │     &#xa;         │                              │                        │&lt;──────────────────────     &#xa;         │                              │                        │                      │     &#xa;         │                              │Confirm Project Created │                      │     &#xa;         │                              │&lt;───────────────────────│                      │     &#xa;         │                              │                        │                      │     &#xa;         │Show Project Creation Success │                        │                      │     &#xa;         │&lt;─────────────────────────────│                        │                      │     &#xa;     ┌───┴───┐                  ┌───────┴───────┐            ┌───┴───┐              ┌───┴────┐&#xa;     │Manager│                  │Web Application│            │Backend│              │Database│&#xa;     └───────┘                  └───────────────┘            └───────┘              └────────┘&#xa;&lt;/pre&gt;" plantUmlData="{&quot;data&quot;:&quot;@startuml\nskinparam shadowing true\nManager -&gt; \&quot;Web Application\&quot;: Open Create Project Page\nManager -&gt; \&quot;Web Application\&quot;: Enter Project Details\nManager -&gt; \&quot;Web Application\&quot;: Submit Project Form\n\&quot;Web Application\&quot; -&gt; Backend: Create Project\nBackend -&gt; Database: Insert Project Details\nDatabase -&gt; Backend: Confirm Insertion\nBackend -&gt; \&quot;Web Application\&quot;: Confirm Project Created\n\&quot;Web Application\&quot; -&gt; Manager: Show Project Creation Success\n\n@enduml&quot;,&quot;format&quot;:&quot;txt&quot;}" id="lU2oa-uTKTqDx3e-SzXN-2">
          <mxCell style="text;html=1;align=left;verticalAlign=top;" vertex="1" parent="1">
            <mxGeometry x="50" y="50" width="640" height="450" as="geometry" />
          </mxCell>
        </UserObject>
      </root>
    </mxGraphModel>
  </diagram>
</mxfile>
